<svg width="192" height="54" viewBox="0 0 192 54" fill="none" xmlns="http://www.w3.org/2000/svg">
<g clip-path="url(#clip0_624_2)">
<path d="M46.553 19.7704C46.4584 19.0843 46.3294 18.4151 46.1746 17.7544C46.3853 18.9615 46.5014 20.1982 46.5014 21.4603C46.5014 33.497 36.5939 43.2551 24.373 43.2551C19.6128 43.2551 15.2095 41.7685 11.6017 39.2527C11.004 40.032 10.4278 40.8283 9.86874 41.6372C14.5301 44.8899 20.404 46.4866 26.5145 45.6735C39.3116 43.9709 48.2816 32.3746 46.553 19.7704Z" fill="#DFAD37"/>
<path d="M7.84763 40.0532C8.40664 39.2442 8.98716 38.448 9.58488 37.6687C5.08266 33.6791 2.24888 27.8979 2.24888 21.4602C2.24458 10.7111 10.1568 1.78306 20.5588 0C20.4556 0.0127059 20.3567 0.0211765 20.2535 0.0338824C7.45632 1.73647 -1.51371 13.3327 0.214931 25.9369C0.993251 31.6165 3.81412 36.5252 7.84763 40.0532Z" fill="#DFAD37"/>
<path d="M66.2217 15.3276H64.4974L53.6568 38.7827H55.794L58.718 32.434H72.0355L74.9252 38.7827H77.0623L66.2518 15.3912L66.2217 15.3276ZM71.2013 30.6255H59.5566L65.3789 17.9112L71.2013 30.6255Z" fill="#032F56"/>
<path d="M91.257 26.6019L86.0796 25.3864C84.05 24.9205 81.973 24.0904 81.973 21.4306C81.973 18.5887 84.3768 16.6786 87.9588 16.6786C91.5408 16.6786 94.1552 18.6014 94.7573 21.6932L94.7788 21.8033L96.7525 21.3374L96.731 21.2358C95.9054 17.352 92.5728 14.9421 88.0319 14.9421C83.1427 14.9421 79.8574 17.5638 79.8574 21.4645C79.8574 24.4292 81.6591 26.2927 85.3658 27.1525L90.827 28.4019C93.5618 29.0245 95.1443 29.897 95.1443 32.4974C95.1443 35.4664 92.6287 37.385 88.7371 37.385C84.5187 37.385 81.5344 35.1614 81.1302 31.7181L81.1173 31.5996L79.0016 32.0612L79.0145 32.1544C79.5349 36.4066 83.2975 39.1511 88.5952 39.1511C93.8929 39.1511 97.1223 36.5083 97.1223 32.4212C97.1223 28.3341 93.7768 27.1228 91.2613 26.5934L91.257 26.6019Z" fill="#032F56"/>
<path d="M99.0316 17.153H108.234V38.7953H110.255V17.153H119.457V15.3318H99.0316V17.153Z" fill="#032F56"/>
<path d="M123.413 38.7953H140.571V36.9741H125.434V27.8683H139.496V26.1318H125.434V17.153H140.571V15.3318H123.413V38.7953Z" fill="#032F56"/>
<path d="M157.492 28.0969C161.938 28.0969 164.926 25.5303 164.926 21.7101C164.926 17.8898 161.938 15.3232 157.492 15.3232H146.642V38.7783H148.655V28.0927H153.677L163.366 38.7402L163.4 38.7741H166.014L156.223 28.0884H157.496L157.492 28.0969ZM148.651 17.1317H157.487C160.751 17.1317 162.944 18.9698 162.944 21.7101C162.944 24.4503 160.803 26.3223 157.487 26.3223H148.651V17.1317Z" fill="#032F56"/>
<path d="M181.185 15.3868L181.155 15.3232H179.431L168.59 38.7783H170.727L173.651 32.4296H186.969L189.859 38.7783H191.996L181.185 15.3868ZM186.135 30.6254H174.49L180.312 17.911L186.135 30.6254Z" fill="#032F56"/>
<path d="M39.8405 25.505C39.8362 25.3525 39.7158 25.2297 39.561 25.217C36.6584 24.9841 25.2975 27.1314 20.9157 27.9572C21.3586 27.7158 21.8618 27.4405 22.4036 27.1441C27.0434 24.6961 34.8997 20.6514 36.9853 20.0881C37.1444 20.0457 37.239 19.8848 37.2003 19.7281L37.1659 19.5925C37.1487 19.5121 37.0928 19.4443 37.024 19.402C36.9509 19.3596 36.8649 19.3511 36.7874 19.3723C34.3923 20.0288 26.7897 24.0608 21.9134 26.7248C21.2597 27.0721 20.705 27.3643 20.275 27.5972C20.4083 27.4405 20.5502 27.2754 20.705 27.0932C23.1174 24.2895 28.1399 18.4532 29.688 16.4711C29.7396 16.4076 29.7611 16.3229 29.7482 16.2424C29.7353 16.1619 29.688 16.0857 29.6192 16.0391L29.5031 15.9587C29.3698 15.8655 29.1848 15.8951 29.0859 16.0222C27.5637 17.9492 22.7519 23.5822 20.2492 26.4707C21.9478 22.2862 25.3233 13.4387 26.1662 10.1732C26.2049 10.0208 26.1232 9.8683 25.9727 9.81324L25.8308 9.76242C25.7491 9.73277 25.6588 9.74124 25.5857 9.77936C25.5083 9.81748 25.4524 9.88948 25.4309 9.96995C24.5708 13.2862 21.178 22.2227 19.5397 26.1911C20.06 22.2904 20.6491 16.9667 20.3997 14.4805C20.3825 14.3196 20.2492 14.201 20.0815 14.2095H19.9396C19.8536 14.2179 19.7762 14.2561 19.7203 14.3154C19.6644 14.3789 19.6386 14.4594 19.6472 14.5398C19.888 17.153 19.1828 23.2137 18.7528 26.4114C17.91 21.8161 16.005 11.4777 14.7709 8.95771C14.6978 8.80948 14.5215 8.74595 14.371 8.81371L14.2334 8.87301C14.156 8.90689 14.1001 8.97042 14.07 9.04666C14.0399 9.12289 14.0442 9.2076 14.0829 9.28383C15.1708 11.4862 16.8349 20.2236 17.7466 25.1196C17.0413 23.633 16.1684 21.9177 15.4288 20.4904C13.8163 17.3817 12.036 14.1121 11.4426 13.1252C11.3566 12.9855 11.176 12.9347 11.0298 13.0151L10.918 13.0744C10.8449 13.1125 10.7933 13.1803 10.7718 13.2565C10.7503 13.3328 10.7589 13.4175 10.7976 13.4895C11.3351 14.4255 13.0465 17.5808 14.7322 20.8377C15.8029 22.9088 17.1402 25.5516 17.8584 27.1991C15.4331 24.9078 10.5224 20.0754 7.82189 14.8278C7.74879 14.6838 7.57249 14.6245 7.42198 14.6881L7.28438 14.7474C7.20698 14.7812 7.14678 14.8448 7.12098 14.921C7.09087 14.9972 7.09947 15.0862 7.13818 15.1582C9.21083 19.1987 12.9304 23.705 18.1895 28.5544L18.3529 28.7069C18.3185 28.7408 18.2841 28.7789 18.254 28.817C18.1895 28.8848 18.0863 28.9907 17.9487 29.1304C13.9883 33.1455 10.1655 37.9483 6.58346 43.4161C6.57486 43.4288 5.87394 44.5977 5.40523 45.1271C5.32353 45.2203 5.24613 45.2881 5.16872 45.3516C4.356 45.2796 3.08317 46.3384 1.98664 48.1045C0.670807 50.2264 0.0816916 52.5982 0.602005 53.5723C0.627806 53.6655 0.662207 53.746 0.713808 53.8137C0.77831 53.8984 0.868612 53.9365 0.971815 53.9408C1.75444 54.2923 3.18207 53.2038 4.399 51.2471C5.46113 49.5403 6.04165 47.6725 5.95994 46.4994C6.18785 45.6565 6.43726 44.9916 7.21558 43.8735C7.31018 43.7379 7.44778 43.5304 7.62409 43.2594C9.08183 41.0612 12.9476 35.2165 18.383 29.8377C18.4002 29.825 18.7614 29.5328 19.071 29.2194C19.2903 29.321 19.6214 29.4862 20.0514 29.7022C22.9841 31.1803 29.8557 34.6405 36.1295 35.2885C36.1381 35.2885 36.151 35.2885 36.1596 35.2885C36.237 35.2885 36.3101 35.2589 36.3703 35.2081C36.4348 35.1488 36.4692 35.0641 36.4649 34.9751V34.81C36.452 34.6617 36.3359 34.5347 36.1854 34.522C30.419 33.9332 24.0591 30.8034 21.0017 29.2998C20.9157 29.2575 20.834 29.2151 20.7523 29.177C23.3496 29.3634 28.6688 30.0834 36.0779 31.2523L36.1338 31.2608C36.1338 31.2608 36.1682 31.2608 36.1811 31.2608C36.3273 31.2608 36.4606 31.1549 36.4821 31.0067L36.5036 30.8669C36.5294 30.7017 36.4176 30.5492 36.2542 30.5196C34.6761 30.2528 26.3382 28.978 21.8145 28.5332C31.6488 26.6655 37.5916 25.8015 39.4879 25.9667C39.5782 25.9751 39.6642 25.9455 39.7244 25.8862C39.7889 25.8269 39.8233 25.7422 39.819 25.6575L39.8104 25.4923L39.8405 25.505Z" fill="#032F56"/>
</g>
<defs>
<clipPath id="clip0_624_2">
<rect width="192" height="54" fill="white"/>
</clipPath>
</defs>
</svg>
