<svg width="192" height="60" viewBox="0 0 192 60" fill="none" xmlns="http://www.w3.org/2000/svg">
<g clip-path="url(#clip0_629_2)">
<path d="M34.987 16.4039L43.704 0.866943L45.199 1.70494L32.751 23.8899L34.016 5.60294L35.726 5.72094L34.987 16.4039ZM11.592 15.6499L26.796 25.8899L13.808 4.01794L12.335 4.89294L21.43 20.2099L12.548 14.2289L11.591 15.6489L11.592 15.6499ZM35.693 35.4519L48.68 57.3239L50.154 56.4499L41.056 41.1309L49.939 47.1119L50.895 45.6899L35.693 35.4519ZM0.006 32.5929L17.821 32.5289L8.161 37.1469L8.9 38.6929L25.199 30.8999L0 30.8799L0.006 32.5929ZM60.535 28.9759H36.085L51.789 20.9859L52.637 22.7199L43.39 27.2399L60.515 27.2969L60.535 28.9759ZM16.282 58.2939L17.777 59.1319L26.494 43.5949L25.756 54.2769L27.465 54.3969L28.73 36.1079L16.282 58.2939ZM30.304 27.6719L22.506 11.2039L24.045 10.4519L28.745 20.0719L28.581 2.23494H30.304V27.6719ZM31.482 57.7649H33.195V39.9149L38.046 49.5449L39.586 48.7929L31.482 32.5259V57.7649ZM28.134 28.6299H10.342L10.355 27.1119L21.341 27.1139L5.726 18.1169L6.543 16.6619L28.134 28.6299ZM33.446 31.4329L55.63 43.6319L56.467 42.1379L39.846 32.8109H51.639L51.625 31.4329H33.446ZM19.097 46.3889L17.677 45.4319L23.657 36.5499L8.338 45.6469L7.463 44.1729L29.335 31.1849L19.097 46.3889ZM42.99 12.9719L32.752 28.1759L54.624 15.1889L53.749 13.7149L38.429 22.8119L44.412 13.9299L42.99 12.9719Z" fill="#6E7CA0"/>
<path fill-rule="evenodd" clip-rule="evenodd" d="M74.226 22.7921C72.957 22.7921 71.794 22.5731 70.738 22.1351C69.682 21.6961 68.766 21.0901 67.99 20.3151C67.215 19.5401 66.612 18.6151 66.181 17.5431C65.751 16.4711 65.535 15.3091 65.535 14.0551C65.535 12.8031 65.75 11.6411 66.181 10.5671C66.612 9.49512 67.215 8.57112 67.991 7.79712C68.766 7.02112 69.682 6.41412 70.738 5.97712C71.794 5.53812 72.958 5.31812 74.226 5.31812C75.496 5.31812 76.656 5.53812 77.713 5.97612C78.771 6.41412 79.687 7.02112 80.463 7.79612C81.237 8.57112 81.839 9.49612 82.27 10.5671C82.701 11.6411 82.916 12.8031 82.916 14.0551C82.916 15.3091 82.701 16.4711 82.27 17.5431C81.84 18.6151 81.237 19.5401 80.462 20.3151C79.687 21.0901 78.772 21.6961 77.713 22.1351C76.656 22.5731 75.495 22.7921 74.226 22.7921ZM74.226 20.9621C75.197 20.9621 76.086 20.7801 76.892 20.4221C77.698 20.0621 78.392 19.5671 78.97 18.9401C79.55 18.3141 80 17.5831 80.321 16.7451C80.642 15.9071 80.803 15.0111 80.803 14.0551C80.803 13.1011 80.643 12.2051 80.321 11.3661C80.001 10.5281 79.551 9.79612 78.971 9.17012C78.391 8.54412 77.698 8.05112 76.892 7.69012C76.085 7.33012 75.197 7.15012 74.226 7.15012C73.254 7.15012 72.367 7.33012 71.56 7.69012C70.753 8.05112 70.06 8.54412 69.481 9.17012C68.902 9.79612 68.452 10.5281 68.131 11.3661C67.811 12.2041 67.649 13.1011 67.649 14.0561C67.649 15.0111 67.81 15.9071 68.131 16.7461C68.452 17.5831 68.902 18.3141 69.481 18.9401C70.061 19.5671 70.753 20.0611 71.561 20.4211C72.367 20.7811 73.254 20.9621 74.226 20.9621ZM85.118 11.3781H86.95V12.9761H86.996C87.496 12.3801 88.081 11.9181 88.746 11.5891C89.412 11.2611 90.144 11.0971 90.942 11.0971C91.805 11.0971 92.591 11.2411 93.302 11.5301C94.015 11.8201 94.622 12.2241 95.122 12.7401C95.624 13.2571 96.016 13.8671 96.298 14.5721C96.58 15.2761 96.72 16.0441 96.72 16.8741C96.72 17.7041 96.58 18.4711 96.298 19.1761C96.016 19.8801 95.628 20.4911 95.135 21.0081C94.642 21.5241 94.058 21.9281 93.385 22.2181C92.712 22.5081 91.992 22.6521 91.224 22.6521C90.239 22.6521 89.372 22.4371 88.629 22.0061C87.886 21.5761 87.341 21.0471 86.996 20.4201H86.95V27.7261H85.118V11.3781ZM86.95 16.8741C86.95 17.4541 87.04 17.9891 87.22 18.4821C87.4 18.9761 87.662 19.4061 88.007 19.7741C88.351 20.1441 88.762 20.4321 89.24 20.6441C89.718 20.8551 90.254 20.9601 90.849 20.9601C91.444 20.9601 91.979 20.8551 92.457 20.6441C92.935 20.4321 93.347 20.1441 93.691 19.7741C94.035 19.4061 94.298 18.9761 94.477 18.4821C94.657 17.9891 94.747 17.4531 94.747 16.8741C94.747 16.2951 94.657 15.7581 94.477 15.2651C94.297 14.7731 94.035 14.3411 93.691 13.9731C93.347 13.6061 92.935 13.3151 92.457 13.1041C91.98 12.8941 91.444 12.7861 90.849 12.7861C90.254 12.7861 89.718 12.8931 89.239 13.1041C88.762 13.3151 88.351 13.6061 88.007 13.9741C87.662 14.3411 87.4 14.7741 87.22 15.2651C87.04 15.7581 86.95 16.2941 86.95 16.8741ZM108.833 20.3731C108.176 21.2191 107.455 21.8101 106.673 22.1461C105.889 22.4831 104.981 22.6521 103.948 22.6521C103.086 22.6521 102.312 22.4991 101.623 22.1931C100.933 21.8881 100.351 21.4771 99.873 20.9611C99.395 20.4431 99.028 19.8341 98.77 19.1281C98.51 18.4241 98.38 17.6731 98.38 16.8741C98.38 16.0281 98.522 15.2491 98.804 14.5371C99.086 13.8251 99.477 13.2141 99.979 12.7051C100.48 12.1961 101.075 11.8011 101.764 11.5191C102.452 11.2361 103.204 11.0961 104.019 11.0961C104.786 11.0961 105.491 11.2261 106.132 11.4841C106.774 11.7421 107.326 12.1181 107.788 12.6111C108.249 13.1031 108.606 13.7071 108.856 14.4211C109.107 15.1331 109.233 15.9421 109.233 16.8511V17.4371H100.354C100.386 17.9071 100.499 18.3571 100.695 18.7881C100.89 19.2191 101.145 19.5951 101.458 19.9151C101.771 20.2361 102.14 20.4901 102.562 20.6791C102.985 20.8661 103.447 20.9611 103.948 20.9611C104.747 20.9611 105.419 20.8191 105.968 20.5381C106.515 20.2561 107.009 19.8421 107.448 19.2931L108.833 20.3731ZM107.26 15.8881C107.228 14.9481 106.923 14.1951 106.343 13.6331C105.764 13.0681 104.965 12.7871 103.948 12.7871C102.93 12.7871 102.107 13.0681 101.481 13.6331C100.855 14.1951 100.48 14.9481 100.354 15.8881H107.26ZM111.254 13.9861C111.254 13.4841 111.238 13.0141 111.207 12.5761C111.176 12.1361 111.16 11.7391 111.16 11.3791H112.899C112.899 11.6751 112.906 11.9731 112.922 12.2711C112.938 12.5691 112.945 12.8751 112.945 13.1861H112.991C113.118 12.9211 113.294 12.6631 113.521 12.4111C113.748 12.1611 114.018 11.9381 114.331 11.7431C114.644 11.5481 114.996 11.3891 115.387 11.2731C115.779 11.1551 116.202 11.0961 116.656 11.0961C117.376 11.0961 117.999 11.2061 118.524 11.4251C119.048 11.6451 119.483 11.9511 119.827 12.3411C120.171 12.7331 120.426 13.2071 120.59 13.7611C120.755 14.3191 120.837 14.9251 120.837 15.5831V22.3711H119.005V15.7701C119.005 14.8461 118.801 14.1191 118.395 13.5861C117.986 13.0541 117.353 12.7881 116.492 12.7881C115.897 12.7881 115.384 12.8881 114.953 13.0921C114.523 13.2971 114.171 13.5861 113.896 13.9621C113.622 14.3381 113.419 14.7841 113.286 15.3001C113.152 15.8171 113.086 16.3891 113.086 17.0151V22.3711H111.254V13.9861ZM65.536 32.6641H70.469C71.235 32.6641 71.967 32.7391 72.664 32.8881C73.361 33.0361 73.979 33.2871 74.52 33.6381C75.06 33.9911 75.49 34.4611 75.81 35.0481C76.133 35.6361 76.293 36.3601 76.293 37.2211C76.293 38.1291 76.121 38.8811 75.777 39.4761C75.432 40.0701 74.99 40.5401 74.449 40.8851C73.909 41.2291 73.318 41.4731 72.677 41.6131C72.035 41.7531 71.424 41.8231 70.844 41.8231H67.509V49.2931H65.536V32.6631V32.6641ZM67.509 39.9921H70.844C71.831 39.9921 72.633 39.7691 73.252 39.3221C73.87 38.8771 74.18 38.1841 74.18 37.2451C74.18 36.3051 73.87 35.6121 73.252 35.1651C72.632 34.7191 71.831 34.4951 70.844 34.4951H67.509V39.9921ZM78.315 31.5371H80.147V39.8271H80.193C80.319 39.6071 80.491 39.3931 80.711 39.1821C80.93 38.9711 81.191 38.7791 81.498 38.6061C81.803 38.4341 82.144 38.2931 82.518 38.1831C82.895 38.0731 83.294 38.0191 83.717 38.0191C84.437 38.0191 85.06 38.1291 85.585 38.3481C86.109 38.5671 86.544 38.8731 86.888 39.2651C87.232 39.6551 87.487 40.1291 87.651 40.6851C87.816 41.2411 87.898 41.8481 87.898 42.5051V49.2931H86.066V42.6931C86.066 41.7691 85.862 41.0411 85.456 40.5091C85.046 39.9771 84.413 39.7091 83.553 39.7091C82.958 39.7091 82.445 39.8121 82.013 40.0161C81.583 40.2201 81.232 40.5091 80.957 40.8851C80.683 41.2611 80.48 41.7071 80.346 42.2241C80.213 42.7401 80.146 43.3121 80.146 43.9371V49.2931H78.315V31.5371ZM90.568 34.0021C90.568 33.6441 90.697 33.3301 90.956 33.0631C91.214 32.7971 91.531 32.6631 91.906 32.6631C92.283 32.6631 92.6 32.7981 92.859 33.0631C93.116 33.3301 93.245 33.6431 93.245 34.0031C93.245 34.3951 93.12 34.7151 92.87 34.9651C92.619 35.2171 92.298 35.3421 91.907 35.3421C91.515 35.3421 91.194 35.2171 90.944 34.9651C90.693 34.7151 90.568 34.3951 90.568 34.0021ZM90.991 49.2921H92.823V38.3001H90.99L90.991 49.2921ZM96.628 49.2931H98.46V31.5371H96.628V49.2931ZM101.686 39.7101C102.248 39.1301 102.919 38.7051 103.693 38.4301C104.469 38.1571 105.256 38.0201 106.055 38.0201C107.683 38.0201 108.857 38.4031 109.577 39.1701C110.297 39.9371 110.658 41.1041 110.658 42.6701V47.3911C110.658 47.7041 110.673 48.0291 110.705 48.3651C110.736 48.7021 110.775 49.0101 110.822 49.2921H109.061C108.998 49.0421 108.962 48.7641 108.955 48.4581C108.947 48.1541 108.943 47.8831 108.943 47.6481H108.896C108.536 48.2121 108.054 48.6741 107.452 49.0341C106.849 49.3941 106.124 49.5741 105.279 49.5741C104.716 49.5741 104.187 49.5041 103.693 49.3641C103.201 49.2221 102.77 49.0161 102.401 48.7411C102.034 48.4681 101.741 48.1271 101.522 47.7191C101.302 47.3121 101.192 46.8421 101.192 46.3101C101.192 45.4011 101.427 44.6881 101.897 44.1721C102.367 43.6561 102.95 43.2721 103.647 43.0221C104.343 42.7721 105.095 42.6151 105.902 42.5521C106.708 42.4891 107.447 42.4581 108.121 42.4581H108.826V42.1281C108.826 41.3311 108.587 40.7281 108.109 40.3211C107.632 39.9141 106.962 39.7101 106.102 39.7101C105.506 39.7101 104.922 39.8091 104.352 40.0041C103.779 40.2001 103.275 40.5021 102.836 40.9081L101.686 39.7101ZM106.994 44.0071C105.819 44.0071 104.888 44.1731 104.199 44.5021C103.509 44.8301 103.165 45.3701 103.165 46.1221C103.165 46.8121 103.396 47.3001 103.859 47.5901C104.32 47.8801 104.895 48.0241 105.585 48.0241C106.117 48.0241 106.583 47.9341 106.982 47.7541C107.381 47.5741 107.714 47.3361 107.98 47.0381C108.247 46.7411 108.45 46.3931 108.591 45.9941C108.732 45.5941 108.81 45.1671 108.826 44.7121V44.0071H106.994ZM113.744 40.9081C113.744 40.4071 113.727 39.9371 113.696 39.5001C113.665 39.0601 113.649 38.6621 113.649 38.3001H115.388C115.388 38.5981 115.395 38.8961 115.411 39.1941C115.426 39.4921 115.435 39.7971 115.435 40.1091H115.482C115.606 39.8441 115.783 39.5861 116.01 39.3341C116.237 39.0841 116.507 38.8611 116.82 38.6641C117.133 38.4701 117.486 38.3121 117.877 38.1941C118.268 38.0781 118.691 38.0191 119.145 38.0191C119.866 38.0191 120.489 38.1291 121.013 38.3481C121.537 38.5671 121.972 38.8731 122.316 39.2641C122.661 39.6561 122.915 40.1301 123.08 40.6841C123.244 41.2411 123.326 41.8481 123.326 42.5061V49.2931H121.494V42.6921C121.494 41.7691 121.291 41.0411 120.883 40.5091C120.476 39.9761 119.842 39.7091 118.981 39.7091C118.386 39.7091 117.873 39.8121 117.442 40.0151C117.012 40.2201 116.66 40.5091 116.386 40.8851C116.112 41.2611 115.908 41.7071 115.776 42.2231C115.642 42.7401 115.575 43.3121 115.575 43.9381V49.2931H113.744V40.9081ZM132.268 39.8511H129.026V45.3471C129.026 45.7061 129.034 46.0391 129.05 46.3451C129.065 46.6501 129.129 46.9161 129.238 47.1431C129.348 47.3711 129.512 47.5511 129.732 47.6841C129.951 47.8171 130.264 47.8831 130.671 47.8831C130.937 47.8831 131.211 47.8521 131.493 47.7891C131.775 47.7271 132.04 47.6331 132.291 47.5071L132.362 49.1741C132.048 49.3161 131.7 49.4171 131.317 49.4801C130.933 49.5431 130.569 49.5751 130.225 49.5751C129.567 49.5751 129.042 49.4881 128.651 49.3161C128.26 49.1441 127.954 48.9011 127.735 48.5871C127.515 48.2751 127.371 47.8871 127.3 47.4251C127.23 46.9641 127.195 46.4521 127.195 45.8871V39.8511H124.799V38.3001H127.195V35.1761H129.026V38.3001H132.268V39.8511ZM134.523 31.5371H136.355V39.8271H136.402C136.527 39.6071 136.699 39.3931 136.919 39.1821C137.138 38.9711 137.4 38.7791 137.706 38.6061C138.011 38.4341 138.352 38.2931 138.728 38.1831C139.104 38.0731 139.502 38.0191 139.925 38.0191C140.645 38.0191 141.268 38.1291 141.793 38.3481C142.317 38.5671 142.752 38.8731 143.096 39.2651C143.44 39.6551 143.695 40.1291 143.859 40.6851C144.024 41.2411 144.106 41.8481 144.106 42.5051V49.2931H142.274V42.6931C142.274 41.7691 142.07 41.0411 141.664 40.5091C141.255 39.9771 140.622 39.7091 139.761 39.7091C139.166 39.7091 138.653 39.8121 138.222 40.0161C137.792 40.2201 137.44 40.5091 137.165 40.8851C136.891 41.2611 136.688 41.7071 136.555 42.2241C136.421 42.7401 136.355 43.3121 136.355 43.9371V49.2931H134.523V31.5371ZM147.112 40.9081C147.112 40.4071 147.095 39.9371 147.064 39.5001C147.033 39.0601 147.017 38.6621 147.017 38.3001H148.756C148.756 38.5981 148.763 38.8961 148.779 39.1941C148.794 39.4921 148.803 39.7971 148.803 40.1091H148.85C148.974 39.8441 149.151 39.5861 149.378 39.3341C149.605 39.0841 149.875 38.8611 150.187 38.6641C150.501 38.4701 150.854 38.3121 151.245 38.1941C151.636 38.0781 152.059 38.0191 152.513 38.0191C152.638 38.0191 152.764 38.0271 152.89 38.0431C153.014 38.0581 153.139 38.0901 153.265 38.1371L153.147 39.9921C152.834 39.8981 152.505 39.8511 152.161 39.8511C151.034 39.8511 150.215 40.2161 149.707 40.9431C149.198 41.6711 148.943 42.6701 148.943 43.9381V49.2931H147.112V40.9081ZM154.149 43.7971C154.149 42.9371 154.297 42.1521 154.595 41.4471C154.893 40.7431 155.299 40.1371 155.816 39.6271C156.334 39.1181 156.952 38.7241 157.672 38.4421C158.393 38.1591 159.175 38.0191 160.021 38.0191C160.867 38.0191 161.649 38.1591 162.37 38.4421C163.09 38.7241 163.708 39.1181 164.224 39.6271C164.742 40.1371 165.148 40.7431 165.446 41.4471C165.744 42.1521 165.893 42.9371 165.893 43.7971C165.893 44.6571 165.744 45.4411 165.446 46.1471C165.148 46.8501 164.742 47.4571 164.224 47.9651C163.708 48.4751 163.09 48.8701 162.37 49.1511C161.649 49.4331 160.867 49.5741 160.021 49.5741C159.175 49.5741 158.393 49.4341 157.672 49.1511C156.952 48.8711 156.334 48.4751 155.816 47.9651C155.299 47.4571 154.893 46.8501 154.595 46.1461C154.297 45.4411 154.149 44.6571 154.149 43.7971ZM156.122 43.7971C156.122 44.3771 156.212 44.9121 156.392 45.4051C156.572 45.8991 156.835 46.3291 157.179 46.6971C157.523 47.0671 157.934 47.3551 158.412 47.5671C158.889 47.7771 159.425 47.8831 160.021 47.8831C160.616 47.8831 161.151 47.7771 161.63 47.5671C162.107 47.3551 162.518 47.0671 162.863 46.6971C163.208 46.3291 163.469 45.8991 163.65 45.4051C163.83 44.9121 163.92 44.3761 163.92 43.7971C163.92 43.2181 163.83 42.6811 163.65 42.1881C163.469 41.6941 163.208 41.2641 162.863 40.8961C162.518 40.5271 162.107 40.2371 161.63 40.0261C161.151 39.8161 160.616 39.7091 160.021 39.7091C159.425 39.7091 158.889 39.8161 158.412 40.0261C157.934 40.2371 157.523 40.5271 157.179 40.8961C156.835 41.2641 156.572 41.6941 156.392 42.1881C156.212 42.6811 156.122 43.2171 156.122 43.7971ZM167.882 38.3001H169.714V39.8981H169.761C170.262 39.3031 170.845 38.8401 171.512 38.5121C172.177 38.1831 172.908 38.0191 173.708 38.0191C174.569 38.0191 175.355 38.1641 176.068 38.4531C176.78 38.7431 177.386 39.1461 177.887 39.6631C178.388 40.1791 178.78 40.7901 179.062 41.4941C179.345 42.1991 179.486 42.9671 179.486 43.7971C179.486 44.6271 179.345 45.3941 179.062 46.0981C178.78 46.8031 178.394 47.4141 177.899 47.9301C177.406 48.4461 176.823 48.8511 176.15 49.1401C175.477 49.4301 174.756 49.5741 173.988 49.5741C173.003 49.5741 172.137 49.3601 171.394 48.9281C170.65 48.4981 170.105 47.9691 169.761 47.3431H169.714V54.6481H167.882V38.3001ZM169.714 43.7971C169.714 44.3771 169.804 44.9121 169.985 45.4051C170.165 45.8991 170.426 46.3291 170.772 46.6971C171.116 47.0671 171.526 47.3551 172.005 47.5671C172.483 47.7781 173.018 47.8831 173.613 47.8831C174.209 47.8831 174.744 47.7781 175.221 47.5661C175.699 47.3561 176.111 47.0661 176.455 46.6971C176.799 46.3291 177.062 45.8991 177.242 45.4051C177.422 44.9121 177.512 44.3761 177.512 43.7971C177.512 43.2181 177.422 42.6811 177.242 42.1881C177.062 41.6951 176.799 41.2641 176.455 40.8961C176.111 40.5281 175.699 40.2371 175.221 40.0271C174.744 39.8171 174.209 39.7091 173.613 39.7091C173.018 39.7091 172.483 39.8161 172.005 40.0271C171.526 40.2371 171.116 40.5281 170.772 40.8971C170.426 41.2641 170.165 41.6951 169.985 42.1881C169.804 42.6811 169.714 43.2171 169.714 43.7971ZM186.882 49.5461C186.695 50.0161 186.882 49.5461 184.967 54.6791H183.094L184.872 49.3621L180.315 38.3001H182.452L185.859 46.9211H185.905L189.17 38.3011H191.166L186.882 49.5461Z" fill="#241F21"/>
</g>
<defs>
<clipPath id="clip0_629_2">
<rect width="192" height="60" fill="white"/>
</clipPath>
</defs>
</svg>
