<svg width="239" height="55" viewBox="0 0 239 55" fill="none" xmlns="http://www.w3.org/2000/svg">
<g clip-path="url(#clip0_1316_4334)">
<path d="M38.6697 1.99695C36.6801 1.19343 34.3915 0.335131 32.2676 0.128164C31.8587 0.0855536 31.2301 0.0490301 30.687 0.103815C25.2126 0.627319 26.8604 3.75616 29.6555 5.37537C31.8221 6.62935 35.2154 7.1772 37.8885 8.05985C44.7666 10.3182 51.2358 14.5793 54.0676 21.1231C54.153 21.3179 54.4643 21.2265 54.4032 21.0196C53.2315 17.0142 51.3761 12.3026 46.7684 9.0399C44.6323 7.52417 41.709 6.1728 38.926 5.08318C35.0933 3.58572 33.8178 1.80824 39.2067 2.72133C39.2067 2.72133 39.5912 2.81264 39.6462 2.62394C39.7011 2.43523 39.6462 2.39871 38.6697 2.00304V1.99695Z" fill="#0A3954"/>
<path d="M20.6051 8.61437C23.205 11.7615 27.6174 11.6093 32.6341 12.5893C44.8767 14.9755 59.7925 24.2708 52.6154 38.168C52.5238 38.3506 52.237 38.2593 52.2736 38.0584C52.9022 34.4121 51.3276 29.3658 49.1855 26.8761C40.0615 15.986 19.7263 23.6377 13.1899 13.192C9.2047 6.83689 16.3025 0.871387 22.6679 0.0678698C22.8815 0.0435208 22.9792 0.329622 22.79 0.433105C21.0018 1.44968 17.6268 5.01072 20.599 8.61437H20.6051Z" fill="#0A3954"/>
<path d="M7.2514 9.14289C7.36126 8.9481 7.10493 8.75331 6.94625 8.91158C-2.69039 18.7729 4.29145 30.9778 16.766 33.2971C26.6468 35.1293 34.8553 30.8622 41.8066 36.9981C45.6332 40.3765 44.0586 47.3343 41.5564 50.2866C41.4038 50.4631 41.6174 50.7188 41.8249 50.6031C51.5043 45.2646 52.0048 32.4388 41.3306 28.0438C30.6564 23.6488 15.5759 28.969 7.91663 19.0833C7.91663 19.0833 4.25483 14.5788 7.2514 9.14898V9.14289Z" fill="#0A3954"/>
<path d="M0.178131 24.4101C0.21475 24.2031 0.5199 24.2214 0.538209 24.4283C1.49638 35.0141 12.7503 38.6969 23.1132 38.9038C30.4979 39.0499 35.0934 37.8568 38.3829 41.8074C42.7588 47.0729 35.3192 53.7993 27.7942 54.5298C27.6172 54.5481 27.3975 54.3776 27.5806 54.1402C28.7219 52.6427 35.0812 45.2711 22.8447 44.1023C13.2264 43.1832 -1.80535 36.3411 0.178131 24.4101Z" fill="#0A3954"/>
<path d="M3.08296 39.3973C4.45614 42.2035 6.55557 45.1802 9.55825 47.7977C12.3778 50.263 15.8566 52.3388 21.1479 53.5623C21.4774 53.6415 23.2656 53.8241 24.12 52.9171C25.4688 51.4744 24.4313 49.1917 22.5088 48.6134C18.8714 47.5177 16.3509 47.8281 11.6455 45.5332C8.08743 43.7984 5.65233 42.1305 3.25385 39.239C3.25385 39.239 3.18061 39.1416 3.10127 39.2147C3.02193 39.2877 3.08296 39.3973 3.08296 39.3973Z" fill="#0A3954"/>
<path d="M72.0776 1.5332H76.3253V10.1832H87.4267V1.5332H91.6744V23.009H87.4267V13.9573H76.3253V23.009H72.0776V1.5332Z" fill="#0A3954"/>
<path d="M98.3757 22.3762C97.0818 21.6275 96.0993 20.5927 95.4218 19.2596C94.7444 17.9325 94.4087 16.429 94.4087 14.7489C94.4087 13.0688 94.7749 11.4983 95.5012 10.2078C96.2274 8.91735 97.2344 7.93122 98.5161 7.24945C99.7977 6.56159 101.268 6.2207 102.928 6.2207C104.588 6.2207 106.151 6.58594 107.432 7.32249C108.714 8.05905 109.703 9.06953 110.398 10.36C111.094 11.6505 111.442 13.1114 111.442 14.7489C111.442 16.5264 111.076 18.0786 110.35 19.3996C109.623 20.7205 108.616 21.731 107.335 22.4371C106.053 23.1432 104.582 23.4963 102.922 23.4963C101.177 23.4963 99.6634 23.125 98.3696 22.3762H98.3757ZM105.217 19.3265C105.864 18.8761 106.358 18.2552 106.706 17.4699C107.054 16.6847 107.231 15.7777 107.231 14.755C107.231 13.221 106.834 11.9975 106.047 11.0905C105.26 10.1774 104.216 9.72696 102.922 9.72696C102.037 9.72696 101.274 9.93392 100.634 10.3539C99.993 10.7739 99.4925 11.3583 99.1447 12.101C98.7968 12.8436 98.6198 13.7323 98.6198 14.755C98.6198 15.7777 98.7968 16.7455 99.1569 17.5308C99.5169 18.316 100.017 18.9248 100.664 19.357C101.311 19.7892 102.062 20.0022 102.922 20.0022C103.783 20.0022 104.57 19.777 105.211 19.3265H105.217Z" fill="#0A3954"/>
<path d="M113.969 6.74983H117.35L117.655 8.92907C118.149 8.13164 118.863 7.4803 119.809 6.98115C120.755 6.48199 121.817 6.23242 123.007 6.23242C124.136 6.23242 125.125 6.48808 125.973 6.99941C126.822 7.51074 127.475 8.23512 127.926 9.17864C128.396 8.32034 129.122 7.61422 130.093 7.06028C131.069 6.50634 132.18 6.23242 133.431 6.23242C134.536 6.23242 135.512 6.48199 136.354 6.98115C137.197 7.4803 137.844 8.18034 138.307 9.08125C138.771 9.98216 138.997 11.0353 138.997 12.2406V23.0089H134.817V12.4232C134.817 11.6257 134.585 10.9866 134.127 10.5057C133.663 10.0248 133.047 9.78737 132.265 9.78737C131.545 9.78737 130.905 9.93346 130.343 10.2318C129.782 10.53 129.342 10.9257 129.037 11.4249C128.732 11.924 128.573 12.5023 128.573 13.1597V23.0089H124.393V12.4232C124.393 11.6257 124.161 10.9866 123.703 10.5057C123.239 10.0248 122.623 9.78737 121.842 9.78737C121.121 9.78737 120.481 9.93346 119.919 10.2318C119.358 10.53 118.924 10.9257 118.625 11.4249C118.326 11.924 118.168 12.5023 118.149 13.1597V23.0089H113.969V6.74983Z" fill="#0A3954"/>
<path d="M145.582 22.4124C144.288 21.688 143.288 20.6714 142.567 19.3748C141.847 18.0782 141.493 16.599 141.493 14.9433C141.493 13.2876 141.847 11.6988 142.555 10.3718C143.263 9.04472 144.24 8.02207 145.491 7.30377C146.742 6.58548 148.158 6.23242 149.738 6.23242C151.319 6.23242 152.668 6.57939 153.846 7.27333C155.024 7.96728 155.951 8.96559 156.629 10.2622C157.306 11.5588 157.654 13.0806 157.672 14.8155V15.7955H145.613C145.759 17.086 146.235 18.1087 147.041 18.8818C147.853 19.6487 148.86 20.0322 150.068 20.0322C150.928 20.0322 151.661 19.8435 152.265 19.4661C152.869 19.0887 153.309 18.553 153.571 17.853H157.599C157.166 19.6305 156.287 21.0184 154.956 22.0106C153.626 23.0028 151.984 23.4959 150.037 23.4959C148.359 23.4959 146.87 23.1307 145.576 22.4063L145.582 22.4124ZM152.1 10.5848C151.466 10.0126 150.678 9.7265 149.732 9.7265C148.786 9.7265 147.944 10.0187 147.254 10.6031C146.565 11.1875 146.083 11.991 145.796 13.0136H153.394C153.168 11.9727 152.735 11.1631 152.1 10.5909V10.5848Z" fill="#0A3954"/>
<path d="M158.563 6.75H162.811L165.856 17.8835L168.902 6.75H172.313L175.389 17.7314L178.374 6.75H182.646L177.818 23.009H173.571L170.617 12.545L167.663 23.009H163.391L158.563 6.75Z" fill="#0A3954"/>
<path d="M187.29 22.3762C185.996 21.6275 185.014 20.5927 184.336 19.2596C183.659 17.9325 183.323 16.429 183.323 14.7489C183.323 13.0688 183.689 11.4983 184.416 10.2078C185.142 8.91735 186.149 7.93122 187.431 7.24945C188.712 6.56159 190.183 6.2207 191.843 6.2207C193.503 6.2207 195.065 6.58594 196.347 7.32249C197.629 8.05905 198.617 9.06953 199.313 10.36C200.009 11.6505 200.357 13.1114 200.357 14.7489C200.357 16.5264 199.991 18.0786 199.264 19.3996C198.538 20.7205 197.531 21.731 196.249 22.4371C194.968 23.1432 193.497 23.4963 191.837 23.4963C190.091 23.4963 188.578 23.125 187.284 22.3762H187.29ZM194.132 19.3265C194.779 18.8761 195.273 18.2552 195.621 17.4699C195.969 16.6847 196.146 15.7777 196.146 14.755C196.146 13.221 195.749 11.9975 194.962 11.0905C194.174 10.1774 193.131 9.72696 191.837 9.72696C190.952 9.72696 190.189 9.93392 189.548 10.3539C188.907 10.7739 188.407 11.3583 188.059 12.101C187.711 12.8436 187.534 13.7323 187.534 14.755C187.534 15.7777 187.711 16.7455 188.071 17.5308C188.431 18.316 188.932 18.9248 189.579 19.357C190.226 19.7892 190.976 20.0022 191.837 20.0022C192.697 20.0022 193.485 19.777 194.126 19.3265H194.132Z" fill="#0A3954"/>
<path d="M202.883 6.75016H206.264L206.759 10.0008C207.29 8.87461 208.028 8.01631 208.974 7.42585C209.92 6.83538 211.067 6.53711 212.416 6.53711H213.063V10.5851H212.416C210.738 10.5851 209.42 10.993 208.48 11.8148C207.54 12.6304 207.064 13.7809 207.064 15.248V23.0092H202.883V6.75016Z" fill="#0A3954"/>
<path d="M215.218 0H219.398V23.0098H215.218V0Z" fill="#0A3954"/>
<path d="M225.721 22.395C224.561 21.6584 223.658 20.6297 222.999 19.3088C222.34 17.9878 222.016 16.4782 222.016 14.7859C222.016 13.0937 222.334 11.6449 222.968 10.3362C223.603 9.02739 224.494 8.01691 225.629 7.29861C226.771 6.58032 228.052 6.22726 229.492 6.22726C230.579 6.22726 231.567 6.43422 232.459 6.84207C233.35 7.24992 234.076 7.81603 234.625 8.52824V0H238.806V23.0098H235.455L235.089 20.2766C234.637 21.281 233.942 22.0663 232.996 22.6385C232.05 23.2107 230.933 23.4968 229.645 23.4968C228.186 23.4968 226.88 23.1255 225.721 22.395ZM232.623 19.3879C233.258 18.9374 233.752 18.3165 234.1 17.5191C234.448 16.7217 234.625 15.8025 234.625 14.7555C234.625 13.7754 234.448 12.8989 234.1 12.1319C233.752 11.3649 233.264 10.7683 232.642 10.3362C232.019 9.90396 231.293 9.6909 230.475 9.6909C229.657 9.6909 228.925 9.90396 228.29 10.3362C227.655 10.7683 227.155 11.371 226.801 12.1441C226.441 12.9232 226.264 13.812 226.264 14.8103C226.264 15.8086 226.441 16.746 226.801 17.5435C227.161 18.3409 227.649 18.9618 228.278 19.4001C228.9 19.8383 229.627 20.0575 230.445 20.0575C231.262 20.0575 231.995 19.8323 232.629 19.3818L232.623 19.3879Z" fill="#0A3954"/>
<path d="M71.6748 42.1173C71.6748 35.7379 75.5808 31.1055 82.1964 31.1055C87.6708 31.1055 91.4242 34.2952 92.3457 39.6946H89.6726C88.8731 35.7683 86.1023 33.4673 82.1964 33.4673C77.3689 33.4673 74.3846 36.8092 74.3846 42.1173C74.3846 47.4254 77.3689 50.8951 82.1964 50.8951C86.2244 50.8951 88.8426 48.7159 89.6726 44.6678H92.3457C91.3937 50.2499 87.8234 53.257 82.1964 53.257C75.5808 53.257 71.6748 48.6246 71.6748 42.1173Z" fill="#0A3954"/>
<path d="M95.0801 44.6386C95.0801 39.2088 98.6503 36.293 103.075 36.293C108.275 36.293 111.07 40.0366 111.07 44.6386C111.07 50.2511 107.658 53.2582 103.075 53.2582C97.8447 53.2582 95.0801 49.5449 95.0801 44.6386ZM108.458 44.6386C108.458 40.9863 106.334 38.5027 103.075 38.5027C99.816 38.5027 97.6922 40.9863 97.6922 44.6386C97.6922 48.8084 100.121 51.0485 103.075 51.0485C106.554 51.0485 108.458 48.1631 108.458 44.6386Z" fill="#0A3954"/>
<path d="M114.213 52.916V29.9062H116.764V52.916H114.213Z" fill="#0A3954"/>
<path d="M121.134 52.916V29.9062H123.685V52.916H121.134Z" fill="#0A3954"/>
<path d="M127.127 44.8517C127.127 39.3001 130.728 36.293 134.847 36.293C139.339 36.293 142.232 39.3001 142.323 44.5169V45.223H129.684C129.836 48.6927 131.869 51.0546 135.158 51.0546C137.435 51.0546 139.095 49.9163 139.772 47.804H142.262C141.524 51.1459 138.881 53.2642 135.158 53.2642C130.331 53.2642 127.133 49.7336 127.133 44.8577L127.127 44.8517ZM139.644 43.1046C139.18 40.2497 137.459 38.5027 134.847 38.5027C132.235 38.5027 130.355 40.1888 129.836 43.1046H139.65H139.644Z" fill="#0A3954"/>
<path d="M144.844 44.6995C144.844 39.2392 148.445 36.293 152.869 36.293C156.958 36.293 159.882 38.7461 160.345 42.922H157.855C157.422 40.2254 155.548 38.5027 152.808 38.5027C149.58 38.5027 147.425 40.8645 147.425 44.6995C147.425 48.8388 149.946 51.0485 152.991 51.0485C155.603 51.0485 157.392 49.3928 157.849 46.5683H160.339C159.875 50.7685 157.172 53.2582 152.955 53.2582C147.663 53.2582 144.832 49.3927 144.832 44.6995H144.844Z" fill="#0A3954"/>
<path d="M169.945 52.9161C166.778 52.9161 165.087 51.2908 165.087 48.2837V38.8058H162.073V36.657H165.087V31.1055H167.638V36.657H172.039V38.8058H167.638V48.2837C167.638 49.909 168.438 50.7673 169.945 50.7673H171.758V52.9161H169.945Z" fill="#0A3954"/>
<path d="M174.431 32.0251C174.431 30.9538 175.261 30.1562 176.335 30.1562C177.409 30.1562 178.209 30.9538 178.209 32.0251C178.209 33.0965 177.409 33.9242 176.335 33.9242C175.261 33.9242 174.431 33.0965 174.431 32.0251ZM175.048 52.9165V36.6574H177.599V52.9165H175.048Z" fill="#0A3954"/>
<path d="M187.107 52.9173L180.308 36.6582H183.079L188.462 49.9406L193.814 36.6582H196.585L189.786 52.9173H187.107Z" fill="#0A3954"/>
<path d="M197.836 44.8517C197.836 39.3001 201.437 36.293 205.556 36.293C210.048 36.293 212.941 39.3001 213.033 44.5169V45.223H200.393C200.546 48.6927 202.578 51.0546 205.868 51.0546C208.144 51.0546 209.804 49.9163 210.482 47.804H212.972C212.233 51.1459 209.591 53.2642 205.868 53.2642C201.04 53.2642 197.842 49.7336 197.842 44.8577L197.836 44.8517ZM210.353 43.1046C209.89 40.2497 208.169 38.5027 205.556 38.5027C202.944 38.5027 201.065 40.1888 200.546 43.1046H210.36H210.353Z" fill="#0A3954"/>
</g>
<defs>
<clipPath id="clip0_1316_4334">
<rect width="239" height="55" fill="white"/>
</clipPath>
</defs>
</svg>
