<svg width="28" height="27" viewBox="0 0 28 27" fill="none" xmlns="http://www.w3.org/2000/svg">
<mask id="mask0_312_149" style="mask-type:luminance" maskUnits="userSpaceOnUse" x="0" y="0" width="28" height="27">
<path d="M28 0H0V27H28V0Z" fill="white"/>
</mask>
<g mask="url(#mask0_312_149)">
<path d="M0 14.4995C0 21.4031 5.59644 26.9995 12.5 26.9995C18.7765 26.9995 23.9726 22.3735 24.8647 16.345C24.9411 15.8288 24.332 15.5129 23.8852 15.7825C22.6049 16.555 21.1043 16.9995 19.5 16.9995C14.8056 16.9995 11 13.1939 11 8.49951C11 6.42731 11.7415 4.52831 12.9737 3.05341C13.3084 2.65261 13.0889 2.00241 12.5667 1.99971L12.5 1.99951C5.59644 1.99951 0 7.59601 0 14.4995Z" fill="#868E96"/>
<path d="M28.0716 8.5C28.0716 3.8056 24.266 0 19.5716 0C17.9297 0 16.3966 0.46552 15.0969 1.2718C14.6532 1.547 14.8357 2.194 15.3446 2.3109C20.6468 3.5293 24.6392 8.2069 25.0383 13.6268C25.0767 14.1472 25.6879 14.4255 26.0275 14.0293C27.3018 12.5429 28.0716 10.6114 28.0716 8.5Z" fill="#868E96"/>
</g>
</svg>
